<svg width="10" height="15" viewBox="0 0 10 15" fill="none" xmlns="http://www.w3.org/2000/svg">
<path d="M4.42745 0.561035C7.14971 0.561035 8.57986 2.22634 8.57986 4.02963C8.62396 4.64738 8.48836 5.26469 8.18944 5.807C7.89051 6.34931 7.44105 6.79343 6.89533 7.08572C7.67405 7.2883 8.35878 7.75408 8.83347 8.40409C9.30816 9.0541 9.54358 9.84835 9.49983 10.6522C9.49983 13.1991 7.44303 14.4732 4.34972 14.4732H0.177246V0.561035H4.42745ZM7.36533 4.20518C7.36533 2.83329 6.36636 1.67835 4.60412 1.67835H1.39178V6.71327H4.60412C6.36636 6.71327 7.36533 5.63608 7.36533 4.20518ZM8.2853 10.5933C8.2853 8.98681 7.18859 7.79173 4.89745 7.79173H1.39178V13.3559H4.87735C7.16979 13.3559 8.2853 12.2197 8.2853 10.5933Z" fill="white"/>
</svg>
