<svg width="127" height="133" viewBox="0 0 127 133" fill="none" xmlns="http://www.w3.org/2000/svg">
<path d="M119.168 17.5969H112.197V7.02322C112.197 3.0193 109.079 0 104.944 0H7.82798C3.7058 0 0.476562 3.08478 0.476562 7.02322V32.7016C0.476562 36.7837 3.77455 40.1046 7.82798 40.1046H104.944C108.943 40.1046 112.197 36.7837 112.197 32.7016V22.5077H119.168C120.583 22.5077 121.609 23.4023 121.609 24.6345V51.8025C121.609 53.0658 120.56 54.0185 119.168 54.0185H62.6514C58.6053 54.0185 55.3135 57.3058 55.3135 61.3466V65.4769H51.6721C50.6257 65.4769 49.6943 66.1399 49.3518 67.1286L43.1712 84.9714C43.0816 85.2301 43.0361 85.5018 43.0361 85.7752V130.545C43.0361 131.901 44.1357 133 45.4915 133H69.6361C70.9923 133 72.0915 131.901 72.0915 130.545V85.7752C72.0915 85.5108 72.0486 85.2485 71.9651 84.998L66.0116 67.1552C65.6772 66.153 64.7393 65.4769 63.6827 65.4769H60.2242V61.3466C60.2242 60.0137 61.3128 58.9292 62.6514 58.9292H119.168C123.29 58.9292 126.52 55.799 126.52 51.8025V24.6345C126.52 20.6883 123.29 17.5969 119.168 17.5969ZM107.286 32.7016C107.286 33.9003 106.39 35.1938 104.944 35.1938H7.82798C6.50494 35.1938 5.38733 34.0525 5.38733 32.7016V7.02322C5.38733 5.77957 6.39077 4.91077 7.82798 4.91077H104.944C106.345 4.91077 107.286 5.75951 107.286 7.02322V32.7016ZM67.1812 86.1738V128.089H47.9473V86.1881L53.4204 70.3877H61.914L67.1812 86.1738Z" fill="#2D2D2D"/>
</svg>
