<svg width="126" height="30" viewBox="0 0 126 30" fill="none" xmlns="http://www.w3.org/2000/svg">
<path d="M57.1407 21.4732H55.8672L53.8305 17.2208H47.0147L44.998 21.4732H43.7246L50.4226 7.4043L57.1407 21.4732ZM53.2815 16.0646L50.4226 10.0491L47.5637 16.0646H53.2815Z" fill="white"/>
<path d="M62.9763 7.56104C65.9925 7.56104 67.7949 9.0307 67.7949 11.6165C67.7949 14.1447 65.9925 15.6733 62.9763 15.6733H60.5473V21.4732H59.334V7.56104H62.9763ZM66.5214 11.6165C66.5214 9.71668 65.347 8.65825 62.9763 8.65825H60.5473V14.556H62.9763C65.347 14.556 66.5214 13.5176 66.5214 11.6165Z" fill="white"/>
<path d="M79.4274 7.56104C82.1496 7.56104 83.5798 9.22634 83.5798 11.0296C83.6239 11.6474 83.4883 12.2647 83.1894 12.807C82.8904 13.3493 82.441 13.7934 81.8953 14.0857C82.674 14.2883 83.3587 14.7541 83.8334 15.4041C84.3081 16.0541 84.5435 16.8483 84.4998 17.6522C84.4998 20.1991 82.443 21.4732 79.3497 21.4732H75.1772V7.56104H79.4274ZM82.3653 11.2052C82.3653 9.83329 81.3663 8.67835 79.6041 8.67835H76.3917V13.7133H79.6041C81.3663 13.7133 82.3653 12.6361 82.3653 11.2052ZM83.2852 17.5933C83.2852 15.9868 82.1885 14.7917 79.8974 14.7917H76.3917V20.3559H79.8773C82.1697 20.3559 83.2852 19.2197 83.2852 17.5933Z" fill="white"/>
<path d="M87.0065 7.56104H88.221V16.3781C88.221 19.1219 89.9243 20.4737 92.4511 20.4737C94.9967 20.4737 96.7012 19.1219 96.7012 16.3781V7.56104H97.9145V16.3191C97.9145 19.7088 95.6635 21.6299 92.4511 21.6299C89.24 21.6299 87.0065 19.7088 87.0065 16.3191V7.56104Z" fill="white"/>
<path d="M102.948 15.183V21.4732H101.734V7.56104H105.416C108.275 7.56104 109.939 8.99186 109.939 11.382C109.939 13.5176 108.549 14.9284 106.16 15.1629L111.428 21.4732H109.921L104.75 15.183H102.948ZM108.667 11.382C108.667 9.65774 107.589 8.69716 105.377 8.69716H102.948V14.0656H105.377C107.589 14.0656 108.667 13.0862 108.667 11.382Z" fill="white"/>
<path d="M118.89 7.40419C120.296 7.40395 121.67 7.8209 122.84 8.60232C124.009 9.38374 124.92 10.4945 125.458 11.7942C125.997 13.0939 126.138 14.5241 125.864 15.9039C125.589 17.2838 124.912 18.5513 123.918 19.5462C122.924 20.5411 121.657 21.2186 120.278 21.4932C118.899 21.7677 117.47 21.6269 116.171 21.0886C114.872 20.5503 113.761 19.6386 112.98 18.4688C112.199 17.2991 111.782 15.9239 111.782 14.517C111.767 13.5789 111.94 12.6474 112.292 11.7777C112.644 10.9081 113.167 10.118 113.83 9.45457C114.493 8.79109 115.283 8.26769 116.152 7.91546C117.021 7.56324 117.952 7.38938 118.89 7.40419ZM118.89 8.56041C117.708 8.54083 116.547 8.87356 115.555 9.51619C114.563 10.1588 113.785 11.0823 113.319 12.1691C112.853 13.2558 112.721 14.4567 112.939 15.6188C113.158 16.7809 113.717 17.8516 114.546 18.6946C115.375 19.5376 116.436 20.1148 117.593 20.3527C118.751 20.5906 119.953 20.4784 121.047 20.0304C122.141 19.5824 123.076 18.8189 123.735 17.8371C124.394 16.8552 124.745 15.6995 124.745 14.517C124.768 13.7368 124.633 12.96 124.348 12.2334C124.063 11.5068 123.635 10.8453 123.088 10.2889C122.541 9.7324 121.887 9.2924 121.165 8.99536C120.444 8.69832 119.67 8.55036 118.89 8.56041Z" fill="white"/>
<path d="M0 0L0 29.0345H29.0204V0L0 0ZM8.03946 15.1236H13.9036V27.8206H1.59488L8.03946 15.1236ZM1.21325 25.8922L1.21325 15.1236H6.67894L1.21325 25.8922ZM13.9036 13.9096H8.65564L13.9036 3.57018V13.9096ZM15.1168 3.57018L20.3648 13.9096H15.1168V3.57018ZM15.1168 15.1236H20.981L27.4255 27.8206H15.1168V15.1236ZM22.3416 15.1236H27.8072V25.8922L22.3416 15.1236ZM27.8072 13.9096H21.7254L15.2816 1.21388L27.8072 1.21388V13.9096ZM13.7388 1.21388L7.29499 13.9096H1.21325L1.21325 1.21388L13.7388 1.21388Z" fill="white"/>
</svg>
