<svg width="23" height="23" viewBox="0 0 23 23" fill="none" xmlns="http://www.w3.org/2000/svg">
<path fill-rule="evenodd" clip-rule="evenodd" d="M5.5786 11.4707C5.5786 14.7276 8.2174 17.3673 11.4748 17.3673C14.7296 17.3673 17.3709 14.7276 17.3709 11.4707C17.3709 8.21502 14.7296 5.57529 11.4748 5.57529C8.2174 5.57529 5.5786 8.21502 5.5786 11.4707ZM7.64347 11.4719C7.64347 9.35634 9.35888 7.64244 11.4748 7.64244C13.5907 7.64244 15.3035 9.35634 15.3035 11.4719C15.3035 13.5863 13.5907 15.3015 11.4748 15.3015C9.35888 15.3015 7.64347 13.5863 7.64347 11.4719ZM18.9805 5.35851C18.9805 4.59928 18.3649 3.98381 17.6056 3.98381C16.8463 3.98381 16.2307 4.59928 16.2307 5.35851C16.2307 6.11773 16.8463 6.7332 17.6056 6.7332C18.3649 6.7332 18.9805 6.11773 18.9805 5.35851ZM19.0009 0.604458C18.1094 0.269073 17.1669 0.0892658 16.2129 0.0688622C14.9847 0.0153026 14.5957 0 11.4811 0C8.36662 0 7.96742 -1.28266e-07 6.74941 0.0688622C5.79797 0.0879906 4.85545 0.267798 3.96394 0.604458C2.42071 1.19999 1.2027 2.41911 0.605815 3.96086C0.270385 4.85352 0.0905534 5.79463 0.0714224 6.7485C0.0165802 7.97527 0 8.36422 0 11.4796C0 14.5937 -9.50099e-09 14.9903 0.0714224 16.2107C0.0905534 17.1646 0.270385 18.1057 0.605815 18.9996C1.20398 20.5401 2.42198 21.7592 3.96522 22.356C4.8529 22.7029 5.79542 22.8993 6.75197 22.9299C7.98018 22.9834 8.36917 23 11.4837 23C14.5982 23 14.9974 23 16.2154 22.9299C17.1682 22.9107 18.1107 22.7297 19.0035 22.3955C20.5454 21.7975 21.7634 20.5796 22.3616 19.0379C22.697 18.1452 22.8768 17.2041 22.896 16.2502C22.9508 15.0235 22.9674 14.6345 22.9674 11.5191C22.9674 8.40375 22.9674 8.00843 22.896 6.78804C22.8794 5.82141 22.7008 4.86372 22.359 3.96086C21.7609 2.41911 20.5429 1.19999 19.0009 0.604458ZM20.4089 18.2689C20.0199 19.2725 19.2279 20.0657 18.2255 20.4508C17.5431 20.7046 16.8238 20.8372 16.0955 20.8474C14.8839 20.9035 14.5421 20.9176 11.4352 20.9176C8.32581 20.9176 8.00823 20.9176 6.77365 20.8474C6.04795 20.8385 5.32607 20.7046 4.64501 20.4508C3.63872 20.067 2.84159 19.2738 2.45259 18.2689C2.20262 17.5879 2.06742 16.8674 2.05594 16.1406C2.0011 14.9291 1.98835 14.5873 1.98835 11.4809C1.98835 8.37314 1.98835 8.05561 2.05594 6.81992C2.06487 6.08538 2.19751 5.35851 2.45259 4.66861C2.84159 3.66245 3.63872 2.87054 4.64501 2.48542C5.32607 2.23292 6.04795 2.09902 6.77365 2.08882C7.98655 2.03399 8.32709 2.01868 11.4352 2.01868C14.5434 2.01868 14.8622 2.01869 16.0955 2.08882C16.8238 2.09775 17.5431 2.23165 18.2255 2.48542C19.2279 2.87181 20.0199 3.665 20.4089 4.66861C20.6589 5.34958 20.7941 6.07008 20.8056 6.79696C20.8604 8.0097 20.8745 8.35019 20.8745 11.4579C20.8745 14.5644 20.8745 14.8985 20.8196 16.1176H20.8056V16.1163C20.7967 16.8509 20.664 17.579 20.4089 18.2689Z" fill="white"/>
</svg>
