<svg width="144" height="34" viewBox="0 0 144 34" fill="none" xmlns="http://www.w3.org/2000/svg">
<path d="M65.0124 24.4315H63.5635L61.2462 19.5933H53.4914L51.1969 24.4315H49.748L57.3688 8.42432L65.0124 24.4315ZM60.6216 18.2777L57.3688 11.4335L54.116 18.2777H60.6216Z" fill="white"/>
<path d="M71.6519 8.60303C75.0837 8.60303 77.1343 10.2752 77.1343 13.2172C77.1343 16.0937 75.0837 17.8329 71.6519 17.8329H68.8883V24.4318H67.5078V8.60303H71.6519ZM75.6854 13.2172C75.6854 11.0556 74.3492 9.8514 71.6519 9.8514H68.8883V16.5616H71.6519C74.3492 16.5616 75.6854 15.3802 75.6854 13.2172Z" fill="white"/>
<path d="M90.3689 8.60303C93.4662 8.60303 95.0934 10.4978 95.0934 12.5495C95.1436 13.2523 94.9893 13.9547 94.6492 14.5717C94.3091 15.1887 93.7977 15.694 93.1768 16.0266C94.0628 16.2571 94.8419 16.787 95.382 17.5266C95.9221 18.2662 96.1899 19.1698 96.1401 20.0844C96.1401 22.9822 93.8 24.4318 90.2805 24.4318H85.5332V8.60303H90.3689ZM93.7116 12.7492C93.7116 11.1883 92.575 9.87428 90.57 9.87428H86.9151V15.6028H90.57C92.575 15.6028 93.7116 14.3772 93.7116 12.7492ZM94.7583 20.0174C94.7583 18.1896 93.5105 16.8299 90.9037 16.8299H86.9151V23.1606H90.8808C93.4891 23.1606 94.7583 21.8679 94.7583 20.0174Z" fill="white"/>
<path d="M98.9941 8.60303H100.376V18.6348C100.376 21.7566 102.314 23.2947 105.189 23.2947C108.085 23.2947 110.025 21.7566 110.025 18.6348V8.60303H111.405V18.5677C111.405 22.4243 108.844 24.6102 105.189 24.6102C101.535 24.6102 98.9941 22.4243 98.9941 18.5677V8.60303Z" fill="white"/>
<path d="M117.132 17.2751V24.4318H115.75V8.60303H119.94C123.193 8.60303 125.086 10.231 125.086 12.9504C125.086 15.3802 123.505 16.9854 120.787 17.2522L126.78 24.4318H125.065L119.182 17.2751H117.132ZM123.639 12.9504C123.639 10.9886 122.412 9.89568 119.896 9.89568H117.132V16.0037H119.896C122.412 16.0037 123.639 14.8894 123.639 12.9504Z" fill="white"/>
<path d="M135.27 8.42433C136.87 8.42405 138.434 8.89844 139.764 9.78752C141.094 10.6766 142.131 11.9404 142.744 13.4192C143.356 14.8979 143.516 16.5251 143.204 18.0951C142.893 19.665 142.122 21.1071 140.991 22.2391C139.86 23.371 138.419 24.1419 136.85 24.4543C135.281 24.7667 133.654 24.6065 132.176 23.994C130.698 23.3815 129.435 22.3442 128.546 21.0133C127.657 19.6825 127.183 18.1177 127.183 16.5171C127.166 15.4497 127.363 14.3898 127.764 13.4004C128.164 12.4109 128.759 11.5121 129.513 10.7572C130.268 10.0023 131.166 9.40679 132.155 9.00604C133.144 8.60529 134.203 8.40748 135.27 8.42433ZM135.27 9.73983C133.925 9.71756 132.605 10.0961 131.476 10.8273C130.347 11.5585 129.461 12.6092 128.931 13.8456C128.401 15.0821 128.251 16.4484 128.5 17.7706C128.748 19.0928 129.385 20.311 130.328 21.2702C131.271 22.2293 132.478 22.8861 133.795 23.1567C135.112 23.4274 136.48 23.2997 137.724 22.79C138.969 22.2803 140.033 21.4116 140.783 20.2945C141.532 19.1774 141.932 17.8625 141.932 16.5171C141.958 15.6294 141.805 14.7456 141.481 13.9189C141.156 13.0921 140.668 12.3396 140.046 11.7064C139.424 11.0733 138.68 10.5727 137.859 10.2347C137.038 9.89675 136.157 9.7284 135.27 9.73983Z" fill="white"/>
<path d="M0 0V33.0345H33.0185V0H0ZM9.14703 17.2071H15.819V31.6534H1.8146L9.14703 17.2071ZM1.38039 29.4593V17.2071H7.59907L1.38039 29.4593ZM15.819 15.8259H9.84811L15.819 4.06203V15.8259ZM17.1994 4.06203L23.1704 15.8259H17.1994V4.06203ZM17.1994 17.2071H23.8715L31.2039 31.6534H17.1994V17.2071ZM25.4195 17.2071H31.6381V29.4593L25.4195 17.2071ZM31.6381 15.8259H24.7185L17.3869 1.38111H31.6381V15.8259ZM15.6316 1.38111L8.30001 15.8259H1.38039V1.38111H15.6316Z" fill="white"/>
</svg>
