<svg width="15" height="15" viewBox="0 0 15 15" fill="none" xmlns="http://www.w3.org/2000/svg">
<path d="M7.88952 0.404193C9.29562 0.403946 10.6702 0.820897 11.8395 1.60232C13.0087 2.38374 13.9201 3.49452 14.4584 4.79421C14.9966 6.09389 15.1376 7.52409 14.8634 8.90393C14.5893 10.2838 13.9123 11.5513 12.9181 12.5462C11.9239 13.5411 10.6572 14.2186 9.27813 14.4932C7.89906 14.7677 6.46959 14.6269 5.17049 14.0886C3.8714 13.5503 2.76104 12.6386 1.97983 11.4688C1.19862 10.2991 0.781647 8.92386 0.781653 7.51702C0.766685 6.57892 0.940316 5.64737 1.2922 4.77771C1.64409 3.90806 2.16707 3.11805 2.83009 2.45457C3.4931 1.79109 4.28262 1.26769 5.15175 0.915464C6.02089 0.563242 6.95191 0.389378 7.88952 0.404193ZM7.88952 1.56041C6.70783 1.54083 5.54706 1.87356 4.55497 2.51619C3.56289 3.15883 2.78439 4.08231 2.31859 5.16907C1.8528 6.25583 1.72077 7.4567 1.93933 8.61878C2.1579 9.78086 2.71716 10.8516 3.54592 11.6946C4.37467 12.5376 5.4354 13.1148 6.59309 13.3527C7.75078 13.5906 8.95305 13.4784 10.0468 13.0304C11.1405 12.5824 12.0763 11.8189 12.7349 10.8371C13.3936 9.85522 13.7453 8.69949 13.7452 7.51702C13.7682 6.73682 13.6332 5.96004 13.3483 5.23341C13.0634 4.50679 12.6345 3.84534 12.0874 3.28887C11.5404 2.7324 10.8865 2.2924 10.165 1.99536C9.44362 1.69832 8.66958 1.55036 7.88952 1.56041Z" fill="white"/>
</svg>
