<svg width="30" height="30" viewBox="0 0 30 30" fill="none" xmlns="http://www.w3.org/2000/svg">
<path d="M0 0L0 29.0345H29.0204V0L0 0ZM8.03946 15.1236H13.9036V27.8206H1.59488L8.03946 15.1236ZM1.21325 25.8922L1.21325 15.1236H6.67894L1.21325 25.8922ZM13.9036 13.9096H8.65564L13.9036 3.57018V13.9096ZM15.1168 3.57018L20.3648 13.9096H15.1168V3.57018ZM15.1168 15.1236H20.981L27.4255 27.8206H15.1168V15.1236ZM22.3416 15.1236H27.8072V25.8922L22.3416 15.1236ZM27.8072 13.9096H21.7254L15.2816 1.21388L27.8072 1.21388V13.9096ZM13.7388 1.21388L7.29499 13.9096H1.21325L1.21325 1.21388L13.7388 1.21388Z" fill="white"/>
</svg>
