<svg width="37" height="39" viewBox="0 0 37 39" fill="none" xmlns="http://www.w3.org/2000/svg">
<path d="M34.8243 5.16H32.78V2.05944C32.78 0.88536 31.8659 0 30.6534 0H2.1757C0.96694 0 0.0200195 0.90456 0.0200195 2.05944V9.5892C0.0200195 10.7862 0.9871 11.76 2.1757 11.76H30.6534C31.826 11.76 32.78 10.7862 32.78 9.5892V6.6H34.8243C35.2391 6.6 35.54 6.86232 35.54 7.22364V15.1902C35.54 15.5606 35.2323 15.84 34.8243 15.84H18.2517C17.0653 15.84 16.1 16.804 16.1 17.9888V19.2H15.0323C14.7254 19.2 14.4523 19.3944 14.3519 19.6843L12.5395 24.9164C12.5132 24.9923 12.4999 25.072 12.4999 25.1521V38.28C12.4999 38.6777 12.8223 39 13.2199 39H20.2999C20.6976 39 21.0199 38.6777 21.0199 38.28V25.1521C21.0199 25.0746 21.0073 24.9977 20.9828 24.9242L19.2371 19.6921C19.139 19.3982 18.864 19.2 18.5541 19.2H17.54V17.9888C17.54 17.598 17.8592 17.28 18.2517 17.28H34.8243C36.0331 17.28 36.98 16.3621 36.98 15.1902V7.22364C36.98 6.06648 36.0331 5.16 34.8243 5.16ZM31.34 9.5892C31.34 9.94068 31.0775 10.32 30.6534 10.32H2.1757C1.78774 10.32 1.46002 9.98532 1.46002 9.5892V2.05944C1.46002 1.69476 1.75426 1.44 2.1757 1.44H30.6534C31.064 1.44 31.34 1.68888 31.34 2.05944V9.5892ZM19.58 25.269V37.56H13.94V25.2732L15.5449 20.64H18.0355L19.58 25.269Z" fill="#D3D3D3"/>
</svg>
