<svg width="22" height="23" viewBox="0 0 22 23" fill="none" xmlns="http://www.w3.org/2000/svg">
<path fill-rule="evenodd" clip-rule="evenodd" d="M18.7946 3.34247C16.7265 1.18818 13.9761 0.00126343 11.046 0C5.00821 0 0.0943112 5.11253 0.0918825 11.3963C0.091073 13.405 0.595415 15.3658 1.55404 17.0942L0 23L5.80695 21.4151C7.407 22.3232 9.20836 22.8018 11.0416 22.8023H11.0461C17.0833 22.8023 21.9977 17.6894 22 11.4054C22.0012 8.35996 20.8629 5.49661 18.7946 3.34247ZM11.046 20.8776H11.0422C9.40858 20.8769 7.80637 20.4201 6.4083 19.5572L6.07599 19.3518L2.63005 20.2923L3.54982 16.7967L3.33327 16.4383C2.42187 14.9301 1.9406 13.1868 1.94141 11.397C1.9433 6.17409 6.02768 1.9249 11.0497 1.9249C13.4815 1.92574 15.7675 2.91234 17.4864 4.7029C19.2053 6.49346 20.1514 8.87347 20.1506 11.4047C20.1485 16.628 16.0643 20.8776 11.046 20.8776ZM16.04 13.7829C15.7664 13.6402 14.4207 12.9515 14.1697 12.8564C13.9191 12.7613 13.7364 12.714 13.5541 12.999C13.3715 13.284 12.8471 13.9255 12.6873 14.1154C12.5276 14.3055 12.3681 14.3294 12.0944 14.1867C11.8206 14.0443 10.9387 13.7434 9.89323 12.7733C9.07964 12.0181 8.53037 11.0856 8.37062 10.8006C8.21114 10.5154 8.36927 10.3761 8.4907 10.2194C8.78699 9.83663 9.08369 9.43528 9.1749 9.24534C9.26624 9.05527 9.2205 8.88892 9.15196 8.74643C9.08369 8.60394 8.53631 7.20224 8.30829 6.63187C8.08593 6.07681 7.86048 6.15177 7.69236 6.14307C7.53288 6.13478 7.35033 6.1331 7.16778 6.1331C6.98537 6.1331 6.68881 6.20427 6.43785 6.48953C6.18703 6.77464 5.48003 7.46349 5.48003 8.86519C5.48003 10.2669 6.46079 11.621 6.5976 11.8111C6.73441 12.0012 8.52767 14.8776 11.2732 16.1109C11.9262 16.4046 12.436 16.5797 12.8336 16.7109C13.4893 16.9277 14.0858 16.8971 14.5575 16.8238C15.0834 16.742 16.1767 16.1348 16.405 15.4697C16.633 14.8044 16.633 14.2343 16.5645 14.1154C16.4962 13.9967 16.3137 13.9255 16.04 13.7829Z" fill="white"/>
</svg>
